<svg height="512pt" viewBox="0 -21 512 512" width="512pt" xmlns="http://www.w3.org/2000/svg"><path d="m401.710938 372.460938c5.414062 0 9.816406-4.402344 9.816406-9.816407 0-5.414062-4.402344-9.820312-9.816406-9.820312-5.414063 0-9.820313 4.40625-9.820313 9.820312 0 5.414063 4.40625 9.816407 9.820313 9.816407zm0 0"/><path d="m209.933594 157.082031c-7.894532 0-13.40625 5.933594-13.40625 14.425781 0 8.488282 5.511718 14.421876 13.40625 14.421876 7.894531 0 13.40625-5.933594 13.40625-14.421876 0-8.492187-5.511719-14.425781-13.40625-14.425781zm0 0"/><path d="m256 372.460938c5.414062 0 9.816406-4.402344 9.816406-9.816407 0-5.414062-4.402344-9.820312-9.816406-9.820312s-9.820312 4.40625-9.820312 9.820312c0 5.414063 4.40625 9.816407 9.820312 9.816407zm0 0"/><path d="m110.289062 372.460938c5.414063 0 9.816407-4.402344 9.816407-9.816407 0-5.414062-4.402344-9.820312-9.816407-9.820312-5.414062 0-9.816406 4.40625-9.816406 9.820312 0 5.414063 4.402344 9.816407 9.816406 9.816407zm0 0"/><path d="m0 280.320312v189.589844h512v-189.589844zm401.710938 42.21875c22.113281 0 40.105468 17.988282 40.105468 40.105469 0 22.113281-17.992187 40.105469-40.105468 40.105469-22.117188 0-40.105469-17.992188-40.105469-40.105469 0-22.117187 17.992187-40.105469 40.105469-40.105469zm-145.710938 0c22.113281 0 40.105469 17.988282 40.105469 40.105469 0 22.113281-17.992188 40.105469-40.105469 40.105469-22.117188 0-40.105469-17.992188-40.105469-40.105469 0-22.117187 17.992188-40.105469 40.105469-40.105469zm-145.710938 0c22.113282 0 40.105469 17.988282 40.105469 40.105469 0 22.113281-17.992187 40.105469-40.105469 40.105469-22.113281 0-40.105468-17.992188-40.105468-40.105469 0-22.117187 17.992187-40.105469 40.105468-40.105469zm0 0"/><path d="m512 250.035156v-179.457031l-253.664062-70.578125-258.335938 70.578125v179.457031zm-360.152344-42.183594h-26.351562v-25.199218h-16.847656v25.199218h-26.351563v-72.691406h26.351563v24.277344h16.847656v-24.277344h26.355468v72.691406zm58.085938 1.292969c-22.773438 0-39.945313-16.179687-39.945313-37.636719 0-21.457031 17.171875-37.636718 39.945313-37.636718 22.773437 0 39.945312 16.179687 39.945312 37.636718 0 21.457032-17.171875 37.636719-39.945312 37.636719zm116.445312-1.292969-.128906-23.75-10.363281 17.382813h-12.675781l-10.226563-16.679687v23.046874h-24.964844v-72.691406h21.351563l20.394531 33.496094 19.898437-33.496094h21.371094l.207032 72.691406zm106.269532 0h-59.953126v-72.691406h58.75v22.199219h-32.582031v2.816406h28.707031v21.738281h-28.707031v3.738282h33.785157zm-174.390626-176.3125 143.230469 39.039063h-289.027343zm0 0"/></svg>