<svg height="488pt" viewBox="-3 0 487 488" width="488pt" xmlns="http://www.w3.org/2000/svg" xmlns:xlink="http://www.w3.org/1999/xlink"><linearGradient id="a"><stop offset="0" stop-color="#fff33b"/><stop offset=".014" stop-color="#fee72e"/><stop offset=".042" stop-color="#fed51b"/><stop offset=".07" stop-color="#fdca10"/><stop offset=".1" stop-color="#fdc70c"/><stop offset=".4" stop-color="#f3903f"/><stop offset=".8" stop-color="#ed683c"/><stop offset="1" stop-color="#e93e3a"/></linearGradient><linearGradient id="b" gradientUnits="userSpaceOnUse" x1="240.504997" x2="240.504997" xlink:href="#a" y1="-9.919998" y2="494.632002"/><linearGradient id="c" gradientUnits="userSpaceOnUse" x1="112.504997" x2="112.504997" xlink:href="#a" y1="-9.919998" y2="494.632002"/><linearGradient id="d" gradientUnits="userSpaceOnUse" x1="368.504997" x2="368.504997" xlink:href="#a" y1="-9.919998" y2="494.632002"/><linearGradient id="e" gradientUnits="userSpaceOnUse" x1="216.504997" x2="216.504997" xlink:href="#a" y1="-9.919998" y2="494.632002"/><linearGradient id="f" gradientUnits="userSpaceOnUse" x1="264.504997" x2="264.504997" xlink:href="#a" y1="-9.919998" y2="494.632002"/><path d="m192.503906 240h96c4.417969 0 8-3.582031 8-8v-96c0-2.121094-.84375-4.15625-2.34375-5.65625l-48-48c-3.125-3.121094-8.1875-3.121094-11.3125 0l-48 48c-1.5 1.5-2.34375 3.535156-2.34375 5.65625v96c0 4.417969 3.582032 8 8 8zm8-56h32v40h-32zm48 40v-40h32v40zm32-56h-32v-61.015625l32 32zm-48-61.015625v61.015625h-32v-29.015625zm0 0" fill="url(#b)"/><path d="m160.503906 288c4.417969 0 8-3.582031 8-8v-96c0-4.417969-3.582031-8-8-8h-96c-4.417968 0-8 3.582031-8 8v96c0 4.417969 3.582032 8 8 8zm-88-48h32v32h-32zm48 32v-32h32v32zm32-48h-32v-32h32zm-48-32v32h-32v-32zm0 0" fill="url(#c)"/><path d="m320.503906 288h96c4.417969 0 8-3.582031 8-8v-96c0-4.417969-3.582031-8-8-8h-96c-4.417968 0-8 3.582031-8 8v96c0 4.417969 3.582032 8 8 8zm8-48h32v32h-32zm48 32v-32h32v32zm32-48h-32v-32h32zm-48-32v32h-32v-32zm0 0" fill="url(#d)"/><path d="m208.503906 376h16v16h-16zm0 0" fill="url(#e)"/><path d="m256.503906 376h16v16h-16zm0 0" fill="url(#f)"/><path d="m472.503906 440h-16v-296h16c2.625 0 5.085938-1.285156 6.578125-3.441406 1.496094-2.15625 1.839844-4.910156.917969-7.367188l-48-128c-1.171875-3.125-4.15625-5.19531225-7.496094-5.191406h-368c-3.335937-.00390625-6.324218 2.066406-7.496094 5.191406l-48 128c-.9218745 2.457032-.578124 5.210938.917969 7.367188 1.496094 2.15625 3.953125 3.441406 6.578125 3.441406h16v296h-16c-4.417968 0-8 3.582031-8 8v32c0 4.417969 3.582032 8 8 8h464c4.417969 0 8-3.582031 8-8v-32c0-4.417969-3.582031-8-8-8zm-410.453125-424h356.910157l42 112h-121.257813l-93.535156-93.65625c-1.5-1.503906-3.535157-2.347656-5.660157-2.347656-2.121093 0-4.160156.84375-5.660156 2.347656l-93.65625 93.65625h-121.140625zm-21.546875 128h104c2.121094 0 4.15625-.84375 5.65625-2.34375l90.34375-90.335938 90.199219 90.328126c1.503906 1.503906 3.539063 2.351562 5.664063 2.351562h104.136718v296h-96v-88c0-22.089844-17.90625-40-40-40h-128c-22.089844 0-40 17.910156-40 40v88h-96zm112 296v-88c0-13.253906 10.746094-24 24-24h56v112zm96-112h56c13.257813 0 24 10.746094 24 24v88h-80zm216 144h-448v-16h448zm0 0" fill="url(#b)"/></svg>